<svg xmlns="http://www.w3.org/2000/svg" xmlns:xlink="http://www.w3.org/1999/xlink" fill="none" version="1.1" width="120" height="120" viewBox="0 0 120 120"><defs><linearGradient x1="0.040166061371564865" y1="0.8281255960464478" x2="0.8167583346366882" y2="0.0999351218342781" id="master_svg0_1_371"><stop offset="0%" stop-color="#7406F8" stop-opacity="1"/><stop offset="16.279999911785126%" stop-color="#8314EB" stop-opacity="1"/><stop offset="47.56999909877777%" stop-color="#AA38C9" stop-opacity="1"/><stop offset="90.35000205039978%" stop-color="#E97193" stop-opacity="1"/><stop offset="100%" stop-color="#F87F86" stop-opacity="1"/></linearGradient><linearGradient x1="0.14664313197135925" y1="0.8533512353897095" x2="0.8533095121383667" y2="0.14668487012386322" id="master_svg1_1_368"><stop offset="0%" stop-color="#7406F8" stop-opacity="1"/><stop offset="16.279999911785126%" stop-color="#8314EB" stop-opacity="1"/><stop offset="47.56999909877777%" stop-color="#AA38C9" stop-opacity="1"/><stop offset="90.35000205039978%" stop-color="#E97193" stop-opacity="1"/><stop offset="100%" stop-color="#F87F86" stop-opacity="1"/></linearGradient><linearGradient x1="0.1818743348121643" y1="0.904792070388794" x2="0.960269033908844" y2="0.1713186353445053" id="master_svg2_1_365"><stop offset="0%" stop-color="#7406F8" stop-opacity="1"/><stop offset="16.279999911785126%" stop-color="#8314EB" stop-opacity="1"/><stop offset="47.56999909877777%" stop-color="#AA38C9" stop-opacity="1"/><stop offset="90.35000205039978%" stop-color="#E97193" stop-opacity="1"/><stop offset="100%" stop-color="#F87F86" stop-opacity="1"/></linearGradient></defs><g><g></g><g><g><g><path d="M39.39853577636719,63.59375L39.39069577636719,63.60171327L34.69985577636719,68.36678C33.308429776367184,69.78022,33.308429776367184,72.07214,34.69985577636719,73.48557L35.959965776367184,74.76565L43.96879577636719,66.63008C42.745785776367185,65.96758,41.57342577636719,65.22317,40.453875776367184,64.408459C40.09424577636719,64.146799,39.74675577636719,63.869191,39.39853577636719,63.59375Z" fill="url(#master_svg0_1_371)" fill-opacity="1" style="mix-blend-mode:passthrough"/></g><g><path d="M79.88439577636719,11.83934L57.30999577636719,34.12055L56.65079577636719,33.46995C54.83079577636718,31.67355,54.83079577636718,28.76155,56.65079577636719,26.96515L75.05279577636719,8.80212C70.50349577636719,6.4774,65.34339577636719,5.15625,59.86689577636719,5.15625C41.59399577636719,5.15625,26.781295776367188,19.77655,26.781295776367188,37.81215C26.781295776367188,48.27745,31.781565776367188,57.57775,39.53879577636719,63.55355L62.00419577636719,41.37985L62.66339577636719,42.03055C64.48339577636719,43.82695,64.48339577636719,46.73895,62.66339577636719,48.53535L44.32029577636719,66.64015C48.95549577636719,69.08055,54.24689577636718,70.46875,59.86759577636719,70.46875C78.14039577636719,70.46875,92.95319577636718,55.84775,92.95319577636718,37.81285C92.95249577636719,27.20905,87.81859577636719,17.80325,79.88439577636719,11.83934Z" fill="url(#master_svg1_1_368)" fill-opacity="1" style="mix-blend-mode:passthrough"/></g><g><path d="M75.88620877636718,8.72337C76.42981577636719,9.0102,76.97881577636718,9.28764,77.50328577636719,9.6012C78.21789577636719,10.0282,78.90719577636719,10.4891,79.58422577636719,10.9638L79.58497577636719,10.9645C79.6815657763672,11.0324,79.77436577636719,11.1032,79.86941577636719,11.1719L79.88247577636719,11.1596L84.95679577636719,6.37815C86.45199577636718,4.96928,86.45199577636718,2.68478,84.95679577636719,1.27591L83.60271577636719,0L74.90629577636719,8.19449C75.2429177763672,8.35851,75.55805877636719,8.55069,75.88620877636718,8.72337Z" fill="url(#master_svg2_1_365)" fill-opacity="1" style="mix-blend-mode:passthrough"/></g></g><g><path d="M1,93.918737L3.29261,93.918737L7.71788,104.004775L7.7712,104.004775L12.1787,93.918737L14.4713,93.918737L14.4713,106.508675L12.5341,106.508675L12.5341,97.515865L12.4631,97.515865L8.57095,106.508675L6.90036,106.508675L3.00826,97.515865L2.93717,97.515865L2.93717,106.508675L1,106.508675L1,93.918737ZM20.9226,97.145565Q22.9486,97.145565,23.9083,98.150645Q24.7436,99.032295,24.7436,100.689795L24.7436,106.508675L23.002,106.508675L23.002,105.221475Q22.4866,105.891475,21.6513,106.332375Q20.7449,106.755575,19.5364,106.755575Q18.1146,106.755575,17.2793,106.032575Q16.426299999999998,105.29197500000001,16.426299999999998,104.075275Q16.426299999999998,102.347295,17.7947,101.518545Q18.9499,100.813225,20.816,100.813225L22.8776,100.813225L22.8776,100.582065Q22.8776,98.662005,20.7982,98.662005Q19.8207,98.662005,19.3053,99.014665Q18.6833,99.420225,18.5767,100.213705L16.7106,100.213705Q16.9239,98.591475,18.0968,97.815625Q19.0921,97.145565,20.9226,97.145565ZM22.8776,102.241495L20.9404,102.241495Q18.3634,102.241495,18.3634,104.022375Q18.3634,104.569075,18.7722,104.921675Q19.1809,105.27437499999999,19.9629,105.27437499999999Q21.2247,105.27437499999999,22.0778,104.573175Q22.8776,103.854375,22.8776,102.714835L22.8776,102.241495ZM31.1594,97.145565Q31.888,97.145565,32.3501,97.374795L32.3501,99.243895Q31.7103,99.049925,31.0172,99.049925Q30.1641,99.049925,29.4888,99.737615Q28.7779,100.460565,28.7779,101.677245L28.7779,106.508675L26.8941,106.508675L26.8941,97.392435L28.7779,97.392435L28.7779,98.767805Q29.1156,98.044855,29.6665,97.656925Q30.2886,97.145565,31.1594,97.145565ZM36.9353,97.145565Q40.5253,97.145565,40.8452,100.019745L39.0147,100.019745Q38.8014,99.279155,38.3571,98.997035Q37.8773,98.679635,36.8998,98.679635Q36.0112,98.679635,35.6202,98.926495Q35.1226,99.190995,35.1226,99.737615Q35.1226,100.19607500000001,35.869,100.548735Q36.3311,100.742695,37.7173,101.095355Q39.2635,101.465645,40.0455,101.959365Q41.1474,102.647055,41.1474,103.863775Q41.1474,106.755575,37.0598,106.755575Q33.2921,106.755575,32.9722,103.563965L34.8205,103.563965Q34.9804,104.480875,35.478,104.868775Q35.9757,105.221475,37.0064,105.221475Q39.2102,105.221475,39.2102,103.98717500000001Q39.2102,103.317105,38.3927,102.946815Q37.9661,102.735215,36.5444,102.417825Q34.9093,102.047535,34.2695,101.624345Q33.2032,100.954285,33.2032,99.790515Q33.2032,98.538575,34.234,97.850885Q35.2648,97.145565,36.9353,97.145565ZM48.8427,93.918737L50.7621,93.918737L50.7621,104.868775L57.7466,104.868775L57.7466,106.508675L48.8427,106.508675L48.8427,93.918737ZM60.5013,93.7424074Q61.0877,93.7424074,61.4432,94.095066Q61.8164,94.430092,61.8164,94.994345Q61.8164,95.523335,61.4254,95.911265Q61.0344,96.263925,60.5013,96.263925Q59.9681,96.263925,59.5771,95.911265Q59.2039,95.540965,59.2039,94.994345Q59.2039,94.430092,59.5771,94.095066Q59.9325,93.7424074,60.5013,93.7424074ZM59.5593,97.392435L61.4432,97.392435L61.4432,106.508675L59.5593,106.508675L59.5593,97.392435ZM67.8767,97.145565Q69.7606,97.145565,70.7203,98.485675L70.7203,97.392435L72.4797,97.392435L72.4797,109.999975L70.5959,109.999975L70.5959,105.168575Q69.4762,106.755575,67.7878,106.755575Q65.7974,106.755575,64.6777,105.327275Q63.6292,104.022375,63.6292,101.994635Q63.6292,99.896315,64.69550000000001,98.573835Q65.8507,97.145565,67.8767,97.145565ZM68.1611,98.662005Q66.7393,98.662005,66.1173,99.649455Q65.5663,100.478195,65.5663,101.994635Q65.5663,103.511065,66.1706,104.339775Q66.8104,105.239075,68.2144,105.239075Q69.2452,105.239075,69.9383,104.410375Q70.6492,103.493435,70.6492,102.047535L70.6492,101.888835Q70.6492,100.478195,70.0627,99.631815Q69.3696,98.662005,68.1611,98.662005ZM74.6124,97.392435L76.4962,97.392435L76.4962,102.946815Q76.4962,104.128175,76.9938,104.63957500000001Q77.4915,105.186175,78.5756,105.186175Q79.2865,105.186175,79.944,104.586675Q80.5838,103.969575,80.8326,102.964445L80.8326,97.392435L82.7165,97.392435L82.7165,106.508675L80.8326,106.508675L80.8326,105.27437499999999Q79.6597,106.755575,77.9358,106.755575Q74.6124,106.755575,74.6124,103.070245L74.6124,97.392435ZM86.1998,93.7424074Q86.7863,93.7424074,87.1418,94.095066Q87.515,94.430092,87.515,94.994345Q87.515,95.523335,87.124,95.911265Q86.733,96.263925,86.1998,96.263925Q85.6667,96.263925,85.2757,95.911265Q84.9025,95.540965,84.9025,94.994345Q84.9025,94.430092,85.2757,94.095066Q85.6311,93.7424074,86.1998,93.7424074ZM85.2579,97.392435L87.1418,97.392435L87.1418,106.508675L85.2579,106.508675L85.2579,97.392435ZM96.2944,93.671875L98.1783,93.671875L98.1783,106.508675L96.4188,106.508675L96.4188,105.415475Q95.4414,106.755575,93.5753,106.755575Q91.5492,106.755575,90.3941,105.327275Q89.3277,104.004775,89.3277,101.906475Q89.3277,99.878675,90.3763,98.573835Q91.4959,97.145565,93.4864,97.145565Q95.1748,97.145565,96.2944,98.750165L96.2944,93.671875ZM93.9129,98.662005Q92.5089,98.662005,91.8514,99.596555Q91.2649,100.390035,91.2649,101.906475Q91.2649,103.422905,91.8158,104.251675Q92.4556,105.239075,93.8596,105.239075Q95.0504,105.239075,95.7613,104.269275Q96.3477,103.387635,96.3477,102.029905L96.3477,101.871205Q96.3477,100.407665,95.6369,99.49075500000001Q94.9615,98.662005,93.9129,98.662005ZM101.644,93.7424074Q102.23,93.7424074,102.586,94.095066Q102.959,94.430092,102.959,94.994345Q102.959,95.523335,102.568,95.911265Q102.177,96.263925,101.644,96.263925Q101.111,96.263925,100.7197,95.911265Q100.3465,95.540965,100.3465,94.994345Q100.3465,94.430092,100.7197,94.095066Q101.075,93.7424074,101.644,93.7424074ZM100.7019,97.392435L102.586,97.392435L102.586,106.508675L100.7019,106.508675L100.7019,97.392435ZM107.917,94.447725L107.917,97.392435L110.015,97.392435L110.015,98.944135L107.917,98.944135L107.917,104.233975Q107.917,104.586675,108.077,104.780675Q108.255,104.956975,108.575,104.956975L109.784,104.956975L109.784,106.508675L108.273,106.508675Q107.082,106.508675,106.549,105.891475Q106.034,105.327275,106.034,104.233975L106.034,98.944135L104.327,98.944135L104.327,97.392435L106.034,97.392435L106.034,95.223575L107.917,94.447725ZM110.548,97.392435L112.592,97.392435L115.115,104.040075L117.532,97.392435L119.594,97.392435L114.6,109.999975L112.592,109.999975L114.191,106.297075L110.548,97.392435Z" fill="#FFFFFF" fill-opacity="1" style="mix-blend-mode:passthrough"/></g></g></g></svg>