<svg xmlns="http://www.w3.org/2000/svg" xmlns:xlink="http://www.w3.org/1999/xlink" fill="none" version="1.1" width="20" height="20" viewBox="0 0 20 20"><defs><clipPath id="master_svg0_133_3731"><rect x="0" y="0" width="20" height="20" rx="0"/></clipPath><mask id="master_svg1_133_3733" style="mask-type:alpha" maskUnits="objectBoundingBox"><g><g><rect x="0" y="0" width="20" height="20" rx="10" fill="#FFFFFF" fill-opacity="1" style="mix-blend-mode:passthrough"/></g></g></mask><filter id="master_svg2_133_3740" filterUnits="objectBoundingBox" color-interpolation-filters="sRGB" x="-3.727620787844962" y="-2.466198619849441" width="8.455241575689925" height="5.932397239698882"><feFlood flood-opacity="0" result="BackgroundImageFix"/><feBlend mode="normal" in="SourceGraphic" in2="BackgroundImageFix" result="shape"/><feGaussianBlur stdDeviation="9" result="effect1_foregroundBlur"/></filter></defs><g clip-path="url(#master_svg0_133_3731)"><g mask="url(#master_svg1_133_3733)"><g><g style="opacity:0.699999988079071;" filter="url(#master_svg2_133_3740)"><g style="opacity:0.6000000238418579;"><path d="M13.790420736999511,8.860708862543106L13.898530736999511,9.039872862543106C15.118030736999511,11.060248862543105,14.845670736999512,13.706288862543106,13.243760736999512,15.401518862543107C12.301310736999511,16.398768862543108,11.066150736999512,16.897498862543106,9.830950736999512,16.897648862543107Q9.830950736999512,16.897648862543107,13.790420736999511,8.860708862543106Z" fill="#00A3FF" fill-opacity="1" style="mix-blend-mode:passthrough"/></g><g style="opacity:0.20000000298023224;"><path d="M9.830408096313477,11.303328862543106L13.789828096313476,8.860708862543106Q9.830408096313477,16.897648862543107,9.830408096313477,16.897648862543107C9.830408096313477,15.147218862543106,9.830408096313477,13.141558862543107,9.830408096313477,11.303328862543106Z" fill="#00A3FF" fill-opacity="1" style="mix-blend-mode:passthrough"/></g><g><path d="M5.867239397766113,8.860708862543106L5.759124397766113,9.039872862543106C4.539623397766113,11.060248862543105,4.811987397766114,13.706288862543106,6.413942397766113,15.401518862543107C7.356352397766113,16.398768862543108,8.591502397766114,16.897498862543106,9.826702397766113,16.897648862543107Q9.826702397766113,16.897648862543107,5.867239397766113,8.860708862543106Z" fill="#00A3FF" fill-opacity="1" style="mix-blend-mode:passthrough"/></g><g style="opacity:0.6000000238418579;"><path d="M9.825577948970794,11.303328862543106L5.866157948970795,8.860708862543106Q9.825577948970794,16.897648862543107,9.825577948970794,16.897648862543107C9.825577948970794,15.147218862543106,9.825577948970794,13.141558862543107,9.825577948970794,11.303328862543106Z" fill="#00A3FF" fill-opacity="1" style="mix-blend-mode:passthrough"/></g><g style="opacity:0.20000000298023224;"><path d="M9.832035541534424,5.846365362405777L9.832035541534424,10.059185362405778L13.242665541534423,7.954135362405777L9.832035541534424,5.846365362405777Z" fill="#00A3FF" fill-opacity="1" style="mix-blend-mode:passthrough"/></g><g style="opacity:0.6000000238418579;"><path d="M9.831008668518066,5.846365362405777L6.417908668518066,7.954075362405777L9.831008668518066,10.059185362405778L9.831008668518066,5.846365362405777Z" fill="#00A3FF" fill-opacity="1" style="mix-blend-mode:passthrough"/></g><g><path d="M9.831008668518066,2.30380109930411L6.417908668518066,7.95591109930411L9.831008668518066,5.84220109930411L9.831008668518066,2.30380109930411Z" fill="#00A3FF" fill-opacity="1" style="mix-blend-mode:passthrough"/></g><g style="opacity:0.6000000238418579;"><path d="M9.832035541534424,5.841475488367081L13.245275541534424,7.95518548836708L9.832035541534424,2.3002854883670807L9.832035541534424,5.841475488367081Z" fill="#00A3FF" fill-opacity="1" style="mix-blend-mode:passthrough"/></g></g><g style="opacity:0.6000000238418579;"><path d="M14.102041611480713,8.741477012634277L14.213971611480712,8.925546012634276C15.476711611480713,11.001697012634278,15.194681611480714,13.720677012634276,13.535961611480714,15.462597012634276C12.560131611480713,16.487397012634275,11.281211611480712,16.999847012634277,10.002241611480713,16.999997012634278Q10.002241611480713,16.999997012634278,14.102041611480713,8.741477012634277Z" fill="#00A3FF" fill-opacity="1" style="mix-blend-mode:passthrough"/></g><g style="opacity:0.20000000298023224;"><path d="M10.001698970794678,11.251447012634276L14.101448970794678,8.741477012634277Q10.001698970794678,16.999997012634278,10.001698970794678,16.999997012634278C10.001698970794678,15.201367012634277,10.001698970794678,13.140347012634276,10.001698970794678,11.251447012634276Z" fill="#00A3FF" fill-opacity="1" style="mix-blend-mode:passthrough"/></g><g><path d="M5.897957,8.741477012634277L5.786026,8.925546012634276C4.523289,11.001697012634278,4.805314,13.720677012634276,6.46404,15.462597012634276C7.43987,16.487397012634275,8.71879,16.999847012634277,9.99776,16.999997012634278Q9.99776,16.999997012634278,5.897957,8.741477012634277Z" fill="#00A3FF" fill-opacity="1" style="mix-blend-mode:passthrough"/></g><g style="opacity:0.6000000238418579;"><path d="M9.996598372268677,11.251447012634276L5.896798372268677,8.741477012634277Q9.996598372268677,16.999997012634278,9.996598372268677,16.999997012634278C9.996598372268677,15.201367012634277,9.996598372268677,13.140347012634276,9.996598372268677,11.251447012634276Z" fill="#00A3FF" fill-opacity="1" style="mix-blend-mode:passthrough"/></g><g style="opacity:0.20000000298023224;"><path d="M10.003190517425537,5.644223690032959L10.003190517425537,9.97323369003296L13.534690517425537,7.810113690032959L10.003190517425537,5.644223690032959Z" fill="#00A3FF" fill-opacity="1" style="mix-blend-mode:passthrough"/></g><g style="opacity:0.6000000238418579;"><path d="M10.002140043792725,5.644223690032959L6.468080043792725,7.810063690032959L10.002140043792725,9.97323369003296L10.002140043792725,5.644223690032959Z" fill="#00A3FF" fill-opacity="1" style="mix-blend-mode:passthrough"/></g><g><path d="M10.002140043792725,2.003515610937029L6.468080043792725,7.811465610937029L10.002140043792725,5.63952561093703L10.002140043792725,2.003515610937029Z" fill="#00A3FF" fill-opacity="1" style="mix-blend-mode:passthrough"/></g><g style="opacity:0.6000000238418579;"><path d="M10.003190517425537,5.6388L13.537400517425537,7.81084L10.003190517425537,2L10.003190517425537,5.6388Z" fill="#00A3FF" fill-opacity="1" style="mix-blend-mode:passthrough"/></g></g></g></g></svg>