<svg xmlns="http://www.w3.org/2000/svg" xmlns:xlink="http://www.w3.org/1999/xlink" fill="none" version="1.1" width="20" height="20" viewBox="0 0 20 20"><defs><clipPath id="master_svg0_159_3899"><rect x="0" y="0" width="20" height="20" rx="0"/></clipPath><mask id="master_svg1_159_3901" style="mask-type:alpha" maskUnits="objectBoundingBox"><g><g><rect x="0" y="0" width="19.566787719726562" height="20" rx="0" fill="#FFFFFF" fill-opacity="1" style="mix-blend-mode:passthrough"/></g></g></mask><filter id="master_svg2_159_3908" filterUnits="objectBoundingBox" color-interpolation-filters="sRGB" x="-2.324838823444777" y="-2.1607549326644135" width="5.649677646889554" height="5.548958812057835"><feFlood flood-opacity="0" result="BackgroundImageFix"/><feColorMatrix in="SourceAlpha" type="matrix" values="0 0 0 0 0 0 0 0 0 0 0 0 0 0 0 0 0 0 127 0"/><feOffset dy="2.2744901180267334" dx="0"/><feGaussianBlur stdDeviation="11.372400283813477"/><feColorMatrix type="matrix" values="0 0 0 0 0 0 0 0 0 0 0 0 0 0 0 0 0 0 0.10000000149011612 0"/><feBlend mode="normal" in2="BackgroundImageFix" result="effect1_dropShadow"/><feBlend mode="normal" in="SourceGraphic" in2="effect1_dropShadow" result="shape"/></filter><linearGradient x1="1.584183692932129" y1="-2.76546311378479" x2="-0.9012550417787285" y2="-0.12610033994060543" id="master_svg3_159_4000"><stop offset="0.009999999747378752%" stop-color="#C7F284" stop-opacity="1"/><stop offset="100%" stop-color="#00BEF0" stop-opacity="1"/></linearGradient><linearGradient x1="1.0726747512817383" y1="-1.0932451486587524" x2="-0.2937606567549433" y2="0.4767682784667649" id="master_svg4_159_4001"><stop offset="0.009999999747378752%" stop-color="#C7F284" stop-opacity="1"/><stop offset="100%" stop-color="#00BEF0" stop-opacity="1"/></linearGradient><linearGradient x1="0.47231993079185486" y1="0.5199625492095947" x2="-0.8637791551888228" y2="2.013967283190328" id="master_svg5_159_4002"><stop offset="0.009999999747378752%" stop-color="#C7F284" stop-opacity="1"/><stop offset="100%" stop-color="#00BEF0" stop-opacity="1"/></linearGradient><linearGradient x1="0.7469455599784851" y1="-0.11233633011579514" x2="-0.11138236684090673" y2="0.9499220485922789" id="master_svg6_159_4003"><stop offset="0.009999999747378752%" stop-color="#C7F284" stop-opacity="1"/><stop offset="100%" stop-color="#00BEF0" stop-opacity="1"/></linearGradient><linearGradient x1="0.8765299320220947" y1="-0.4645364284515381" x2="-0.11103270977394847" y2="0.7597708780147294" id="master_svg7_159_4004"><stop offset="0.009999999747378752%" stop-color="#C7F284" stop-opacity="1"/><stop offset="100%" stop-color="#00BEF0" stop-opacity="1"/></linearGradient><linearGradient x1="0.6317225098609924" y1="0.16723504662513733" x2="-0.30281765162201957" y2="1.2639094108248385" id="master_svg8_159_4005"><stop offset="0.009999999747378752%" stop-color="#C7F284" stop-opacity="1"/><stop offset="100%" stop-color="#00BEF0" stop-opacity="1"/></linearGradient></defs><g clip-path="url(#master_svg0_159_3899)"><g mask="url(#master_svg1_159_3901)"><g><g filter="url(#master_svg2_159_3908)"><g><path d="M1.8731689453125,15.72900390625C2.6925209453125,16.90431390625,3.7435289453125,17.88769390625,4.957268945312499,18.61475390625C6.1710289453125,19.34175390625,7.5200489453125,19.79600390625,8.915988945312499,19.94769390625C8.197808945312499,18.83319390625,7.1538689453125,17.807883906249998,5.8506189453125,17.02725390625C4.5473789453125,16.24662990625,3.1672189453125,15.82019190625,1.8731689453125,15.72900390625Z" fill="url(#master_svg3_159_4000)" fill-opacity="1" style="mix-blend-mode:passthrough"/></g><g><path d="M7.6017630078125,13.91907046875C5.0909430078125,12.41475606875,2.3733530078125,12.03138146875,0.4288330078125,12.70863046875C0.6165520078125,13.34844346875,0.8641220078125,13.96794046875,1.1680550078125,14.55838046875C2.8575130078125,14.51801046875,4.7021030078125,14.99119046875,6.4184930078125,16.01926046875C8.1349130078125,17.04732046875,9.4477030078125,18.46619046875,10.2510330078125,20.00001046875C10.8992330078125,19.97951046875,11.5441330078125,19.89432046875,12.1765330078125,19.74576046875C11.7833330078125,17.66863046875,10.1120030078125,15.42369046875,7.6017630078125,13.91907046875Z" fill="url(#master_svg4_159_4001)" fill-opacity="1" style="mix-blend-mode:passthrough"/></g><g><path d="M19.5667654296875,7.81306C19.247565429687498,6.474,18.6699654296875,5.21502,17.8683654296875,4.11128C17.0668954296875,3.00753,16.0579254296875,2.08167,14.9017454296875,1.38897C13.745565429687499,0.696269,12.4658654296875,0.25094,11.139145429687499,0.0795683C9.8123554296875,-0.091803,8.4656854296875,0.0142998,7.1795654296875,0.391541C9.3281754296875,0.662706,11.7131454296875,1.49451,14.0520454296875,2.89578C16.391025429687502,4.29703,18.2747654296875,6.02132,19.5667654296875,7.81306Z" fill="url(#master_svg5_159_4002)" fill-opacity="1" style="mix-blend-mode:passthrough"/></g><g><path d="M16.440683203125,12.724058281249999C15.340783203125,10.84049828125,13.456783203125,9.03686828125,11.135883203125,7.64649828125C8.815073203125,6.25605628125,6.363073203125,5.46186898125,4.233503203125,5.40933168125C2.359983203125,5.36356898125,0.953856203125,5.92522528125,0.37667920312500003,6.94992828125C0.373392203125,6.95599828125,0.368790203125,6.96174828125,0.36517520312499996,6.96786828125C0.313242003125,7.16005828125,0.268540803125,7.35255828125,0.227783203125,7.54580828125C1.033728203125,7.21767828125,1.967533203125,7.03499828125,3.005853203125,7.01461828125C5.314883203125,6.9699282812500005,7.899013203125,7.73155828125,10.283683203125,9.16024828125C12.668283203125,10.58899828125,14.591483203125,12.52749828125,15.697183203125,14.61749828125C16.192783203125,15.55913828125,16.502083203125,16.48613828125,16.624683203125,17.37183828125C16.767383203125,17.24033828125,16.907383203125,17.104438281249998,17.043183203125,16.96313828125C17.046783203125,16.95663828125,17.049083203125,16.949838281250003,17.052683203125,16.94313828125C17.629883203125,15.91743828125,17.406683203125,14.37986828125,16.440683203125,12.724058281249999Z" fill="url(#master_svg6_159_4003)" fill-opacity="1" style="mix-blend-mode:passthrough"/></g><g><path d="M9.37024,10.7802915625C5.81613,8.6509815625,1.88864,8.3174195625,0,9.8034195625C0.00370967,10.2685415625,0.0381919,10.7328515625,0.103207,11.1931715625C0.658782,11.019481562500001,1.23138,10.9101015625,1.81041,10.8671015625C3.92092,10.7033615625,6.2477,11.3097915625,8.35921,12.5754215625C10.4707,13.8411015625,12.1352,15.6261115625,13.043,17.596421562499998C13.2939,18.1362315625,13.4853,18.7033615625,13.6136,19.2872015625C14.0336,19.1174015625,14.4421,18.9184015625,14.836,18.6916115625C15.1522,16.2632915625,12.9253,12.9099815625,9.37024,10.7802915625Z" fill="url(#master_svg7_159_4004)" fill-opacity="1" style="mix-blend-mode:passthrough"/></g><g><path d="M18.2686869140625,9.57127296875C17.156486914062498,7.68971296875,15.2559869140625,5.88102296875,12.9185869140625,4.48145296875C10.5813469140625,3.08189396875,8.1197769140625,2.27516866875,5.9833269140625,2.21042486875C4.3546769140625,2.16195596875,3.0931779140625,2.56904396875,2.4390869140625,3.3381429687499997C5.155036914062499,2.86359996875,8.7374069140625,3.66117296875,12.2096469140625,5.7413729687499995C15.6819869140625,7.82158296875,18.1293869140625,10.63627296875,19.0739869140625,13.30424296875C19.3977869140625,12.33784296875,19.1160869140625,11.00608296875,18.2686869140625,9.57127296875Z" fill="url(#master_svg8_159_4005)" fill-opacity="1" style="mix-blend-mode:passthrough"/></g></g></g></g></g></svg>