<svg xmlns="http://www.w3.org/2000/svg" xmlns:xlink="http://www.w3.org/1999/xlink" fill="none" version="1.1" width="20" height="20" viewBox="0 0 20 20"><defs><clipPath id="master_svg0_133_3711"><rect x="0" y="0" width="20" height="20" rx="0"/></clipPath><linearGradient x1="1.0023200511932373" y1="0.256918340921402" x2="-0.011581868048369796" y2="0.7251217680471321" id="master_svg1_133_3802"><stop offset="0%" stop-color="#C200FB" stop-opacity="1"/><stop offset="48.9657998085022%" stop-color="#3772FF" stop-opacity="1"/><stop offset="48.97580146789551%" stop-color="#3773FE" stop-opacity="1"/><stop offset="100%" stop-color="#5AC4BE" stop-opacity="1"/></linearGradient></defs><g clip-path="url(#master_svg0_133_3711)"><g><path d="M1.6666259765625,14.9989L1.6666259765625,5.00105L9.9999559765625,0L16.6017259765625,3.96277L15.7359259765625,4.48193L9.9999559765625,1.03828L2.5324339765625,5.52021L2.5324339765625,14.4797L9.9999559765625,18.9573L17.463425976562498,14.4797L17.463425976562498,7.50589L18.3333259765625,6.9868L18.3333259765625,14.9989L9.9999559765625,20L1.6666259765625,14.9989ZM6.6614659765625,7.04086L6.6614659765625,5.71704L10.8282059765625,5.71704C11.5577059765625,5.72157,12.2560259765625,6.02481,12.7719259765625,6.56086C13.2877259765625,7.09701,13.5795259765625,7.82284,13.5838259765625,8.58092C13.5883259765625,9.16133,13.4180259765625,9.72858,13.0968259765625,10.2032C12.8012259765625,10.6575,12.3846259765625,11.0123,11.8980259765625,11.2242C11.4161259765625,11.3831,10.9132959765625,11.4619,10.4077959765625,11.4579L7.9102459765625,11.4579L7.9102459765625,14.4862L6.6614659765625,14.4862L6.6614659765625,10.1341L10.8240459765625,10.1341C11.2178759765625,10.1296,11.5941259765625,9.96408,11.8714259765625,9.67333C12.1488259765625,9.38275,12.3048259765625,8.99033,12.3059259765625,8.58092C12.3082259765625,8.37858,12.2706259765625,8.17782,12.1954259765625,7.9911C12.1203259765625,7.80428,12.0091259765625,7.63558,11.8688259765625,7.49512C11.7331259765625,7.35015,11.5706259765625,7.23519,11.3910459765625,7.15715C11.2115459765625,7.07905,11.0187059765625,7.03948,10.8240459765625,7.04086L6.6614659765625,7.04086ZM10.9717959765625,12.3443L12.0956259765625,14.3825L13.5526259765625,14.3825L12.2747259765625,12.0674C11.8550259765625,12.2228,11.4163759765625,12.3161,10.9717959765625,12.3443ZM16.5949259765625,6.05118L16.5949259765625,4.99977L17.456725976562502,4.48057L18.3186259765625,4.99977L18.3186259765625,6.05118L17.456725976562502,6.54871L16.5949259765625,6.05118Z" fill-rule="evenodd" fill="url(#master_svg1_133_3802)" fill-opacity="1" style="mix-blend-mode:passthrough"/></g></g></svg>