<svg xmlns="http://www.w3.org/2000/svg" xmlns:xlink="http://www.w3.org/1999/xlink" fill="none" version="1.1" width="20" height="20.063232421875" viewBox="0 0 20 20.063232421875"><g><g><path d="M20,9.999999999476131Q20,10.24549999947613,19.988,10.490699999476131Q19.9759,10.735899999476132,19.9518,10.980199999476131Q19.9278,11.224499999476132,19.8918,11.46729999947613Q19.8557,11.710199999476131,19.8078,11.950899999476132Q19.76,12.191699999476132,19.7003,12.429799999476131Q19.6407,12.66799999947613,19.5694,12.902899999476132Q19.4981,13.137799999476131,19.4154,13.368899999476131Q19.3327,13.60009999947613,19.2388,13.826899999476131Q19.1448,14.05369999947613,19.0399,14.275599999476132Q18.9349,14.497499999476132,18.8192,14.713999999476131Q18.7035,14.930499999476131,18.5773,15.14109999947613Q18.4511,15.35159999947613,18.3147,15.555699999476131Q18.1783,15.759799999476131,18.0321,15.956999999476132Q17.8858,16.15419999947613,17.7301,16.343999999476132Q17.5744,16.53369999947613,17.4095,16.71559999947613Q17.2446,16.897499999476132,17.0711,17.071099999476132Q16.8975,17.244699999476133,16.7156,17.409499999476132Q16.5337,17.57439999947613,16.3439,17.73009999947613Q16.1542,17.88589999947613,15.957,18.03209999947613Q15.7598,18.17829999947613,15.5557,18.31469999947613Q15.3516,18.45109999947613,15.141,18.577299999476132Q14.9305,18.70349999947613,14.714,18.81919999947613Q14.4975,18.93499999947613,14.2755,19.03989999947613Q14.0536,19.14489999947613,13.8268,19.238799999476132Q13.6,19.33279999947613,13.3689,19.415499999476133Q13.1378,19.49819999947613,12.9028,19.569399999476133Q12.6679,19.64069999947613,12.4298,19.70029999947613Q12.1917,19.759999999476133,11.9509,19.80789999947613Q11.7101,19.85579999947613,11.4673,19.89179999947613Q11.2245,19.927799999476132,10.9802,19.95189999947613Q10.7359,19.97589999947613,10.4907,19.98799999947613Q10.2455,19.99999999947613,10,19.99999999947613Q9.75451,19.99999999947613,9.50932,19.98799999947613Q9.26413,19.97589999947613,9.01983,19.95189999947613Q8.77552,19.927799999476132,8.53269,19.89179999947613Q8.28987,19.85579999947613,8.0491,19.80789999947613Q7.80833,19.759999999476133,7.5702,19.70029999947613Q7.33207,19.64069999947613,7.09715,19.569399999476133Q6.86224,19.49819999947613,6.6311,19.415499999476133Q6.39996,19.33279999947613,6.17316,19.238799999476132Q5.94636,19.14489999947613,5.72445,19.03989999947613Q5.50253,18.93499999947613,5.28603,18.81919999947613Q5.06953,18.70349999947613,4.85897,18.577299999476132Q4.64841,18.45109999947613,4.4443,18.31469999947613Q4.24018,18.17829999947613,4.04301,18.03209999947613Q3.84583,17.88589999947613,3.65607,17.73009999947613Q3.4663,17.57439999947613,3.28441,17.409499999476132Q3.10252,17.244699999476133,2.92893,17.071099999476132Q2.75535,16.897499999476132,2.59049,16.71559999947613Q2.42563,16.53369999947613,2.2699,16.343999999476132Q2.11416,16.15419999947613,1.96792,15.956999999476132Q1.82169,15.759799999476131,1.6853,15.555699999476131Q1.54892,15.35159999947613,1.42271,15.14109999947613Q1.29651,14.930499999476131,1.18079,14.713999999476131Q1.06507,14.497499999476132,0.960107,14.275599999476132Q0.855148,14.05369999947613,0.761205,13.826899999476131Q0.667261,13.60009999947613,0.584559,13.368899999476131Q0.501857,13.137799999476131,0.430597,12.902899999476132Q0.359336,12.66799999947613,0.299687,12.429799999476131Q0.240039,12.191699999476132,0.192147,11.950899999476132Q0.144255,11.710199999476131,0.108235,11.46729999947613Q0.0722146,11.224499999476132,0.0481527,10.980199999476131Q0.0240909,10.735899999476132,0.0120454,10.490699999476131Q0,10.24549999947613,0,9.999999999476131Q0,9.754529999476132,0.0120454,9.509339999476131Q0.0240909,9.264149999476132,0.0481527,9.019839999476131Q0.0722146,8.77553999947613,0.108235,8.53270999947613Q0.144255,8.289879999476131,0.192147,8.049109999476132Q0.240039,7.808339999476131,0.299687,7.570209999476131Q0.359336,7.332079999476131,0.430597,7.097169999476131Q0.501857,6.8622499994761315,0.584559,6.631109999476131Q0.667261,6.399979999476131,0.761205,6.173179999476131Q0.855148,5.9463799994761315,0.960107,5.724459999476131Q1.06507,5.502539999476131,1.18079,5.286039999476131Q1.29651,5.069539999476131,1.42271,4.858979999476131Q1.54892,4.648419999476131,1.6853,4.444299999476131Q1.82169,4.240189999476131,1.96792,4.043009999476131Q2.11416,3.845839999476131,2.2699,3.656069999476131Q2.42563,3.466309999476131,2.59049,3.284419999476131Q2.75535,3.102519999476131,2.92893,2.928939999476131Q3.10252,2.755349999476131,3.28441,2.590489999476131Q3.4663,2.425629999476131,3.65607,2.269899999476131Q3.84583,2.114159999476131,4.04301,1.967929999476131Q4.24018,1.821689999476131,4.4443,1.6853099994761311Q4.64841,1.5489199994761311,4.85897,1.422719999476131Q5.06953,1.296509999476131,5.28603,1.180789999476131Q5.50253,1.065069999476131,5.72445,0.960108999476131Q5.94636,0.855149999476131,6.17316,0.7612059994761311Q6.39996,0.6672619994761311,6.6311,0.584559999476131Q6.86224,0.5018579994761311,7.09715,0.43059699947613106Q7.33207,0.35933599947613104,7.5702,0.29968799947613106Q7.80833,0.24003999947613106,8.0491,0.19214699947613106Q8.28987,0.14425499947613105,8.53269,0.10823499947613105Q8.77552,0.07221469947613106,9.01983,0.048152799476131054Q9.26413,0.02409089947613105,9.50932,0.012045499476131052Q9.75451,-5.238689482212067e-10,10,-5.238689482212067e-10Q10.2455,-5.238689482212067e-10,10.4907,0.012045499476131052Q10.7359,0.02409089947613105,10.9802,0.048152799476131054Q11.2245,0.07221469947613106,11.4673,0.10823499947613105Q11.7101,0.14425499947613105,11.9509,0.19214699947613106Q12.1917,0.24003999947613106,12.4298,0.29968799947613106Q12.6679,0.35933599947613104,12.9028,0.43059699947613106Q13.1378,0.5018579994761311,13.3689,0.584559999476131Q13.6,0.6672619994761311,13.8268,0.7612059994761311Q14.0536,0.855149999476131,14.2755,0.960108999476131Q14.4975,1.065069999476131,14.714,1.180789999476131Q14.9305,1.296509999476131,15.141,1.422719999476131Q15.3516,1.5489199994761311,15.5557,1.6853099994761311Q15.7598,1.821689999476131,15.957,1.967929999476131Q16.1542,2.114159999476131,16.3439,2.269899999476131Q16.5337,2.425629999476131,16.7156,2.590489999476131Q16.8975,2.755349999476131,17.0711,2.928939999476131Q17.2446,3.102519999476131,17.4095,3.284419999476131Q17.5744,3.466309999476131,17.7301,3.656069999476131Q17.8858,3.845839999476131,18.0321,4.043009999476131Q18.1783,4.240189999476131,18.3147,4.444299999476131Q18.4511,4.648419999476131,18.5773,4.858979999476131Q18.7035,5.069539999476131,18.8192,5.286039999476131Q18.9349,5.502539999476131,19.0399,5.724459999476131Q19.1448,5.9463799994761315,19.2388,6.173179999476131Q19.3327,6.399979999476131,19.4154,6.631109999476131Q19.4981,6.8622499994761315,19.5694,7.097169999476131Q19.6407,7.332079999476131,19.7003,7.570209999476131Q19.76,7.808339999476131,19.8078,8.049109999476132Q19.8557,8.289879999476131,19.8918,8.53270999947613Q19.9278,8.77553999947613,19.9518,9.019839999476131Q19.9759,9.264149999476132,19.988,9.509339999476131Q20,9.754529999476132,20,9.999999999476131Z" fill="#FFD15C" fill-opacity="1" style="mix-blend-mode:passthrough"/></g><g><path d="M5.15625524520874,14.0983140625C5.24253864520874,14.0397140625,5.323088245208741,13.9519140625,5.36318024520874,13.8273140625C5.407738245208741,13.6887840625,5.38144724520874,13.5669440625,5.36058024520874,13.4994440625C5.359897245208741,13.4971940625,5.3591722452087405,13.4949440625,5.35843824520874,13.4926940625L5.37507224520874,13.3956140625C5.42098824520874,13.4214440625,5.47383824520874,13.4561940625,5.53411324520874,13.4985340625C5.54864724520874,13.5087840625,5.5689632452087405,13.5231940625,5.59010524520874,13.5382840625C5.61784724520874,13.5581140625,5.64709724520874,13.5790340625,5.66659724520874,13.5925340625C5.70008024520874,13.6158640625,5.74764724520874,13.6483640625,5.79803024520874,13.6751140625C7.131565245208741,14.5039140625,8.23439524520874,14.8456140625,9.11032524520874,14.8033140625C10.01590524520874,14.7595140625,10.65099524520874,14.3039140625,10.97865524520874,13.6391140625C11.29524524520874,12.9964440625,11.30624524520874,12.2001140625,11.084405245208739,11.462444062500001C10.86107524520874,10.7200240625,10.391405245208741,9.998444062499999,9.691325245208741,9.4991140625C8.51157524520874,8.6576940625,7.430645245208741,7.3783540625,6.88404524520874,6.2905140625C6.60645524520874,5.7380340625,6.49603524520874,5.2924740625,6.52518524520874,5.0015440625C6.53871524520874,4.8661440625,6.58022524520874,4.7842240625,6.62983524520874,4.7315150625C6.67948524520874,4.6787560625,6.76996524520874,4.6205810625,6.94427524520874,4.5918810625C7.313475245208741,4.5310560625,7.74048524520874,4.3980810625,8.17384524520874,4.2631560625C8.34207524520874,4.2107640625,8.511245245208741,4.1580730625,8.67840524520874,4.1091980625C9.302995245208741,3.9265560625,9.96424524520874,3.7731222325,10.65924524520874,3.77442240716C12.00732524520874,3.7769556025,13.589415245208741,4.3622390625000005,15.25515524520874,6.7969840625C17.39495524520874,9.9246940625,16.22015524520874,13.4196940625,13.75507524520874,15.2558140625C12.525655245208739,16.1714140625,10.99182524520874,16.6575140625,9.41565524520874,16.4727140625C7.99644524520874,16.3064140625,6.5100152452087405,15.5921140625,5.15625524520874,14.0983140625ZM5.40445524520874,13.2887840625Q5.40399724520874,13.2897840625,5.40290524520874,13.2913640625Q5.40386324520874,13.2895240625,5.40445524520874,13.2887840625ZM5.27047124520874,13.3498640625Q5.27178824520874,13.3499440625,5.27474724520874,13.3506940625Q5.27201324520874,13.3503640625,5.27047124520874,13.3498640625Z" fill="#FFFFFF" fill-opacity="1" style="mix-blend-mode:passthrough"/><path d="M9.35938524520874,16.9526140625L9.35941524520874,16.9526140625Q11.88768524520874,17.249014062500002,14.04368524520874,15.6433140625Q16.15405524520874,14.0714140625,16.70345524520874,11.6162440625Q17.303355245208742,8.9351740625,15.65395524520874,6.524164062500001Q13.44568524520874,3.2965000625,10.66014524520874,3.2912660625Q9.75980524520874,3.2895820625,8.54282524520874,3.6454550625Q8.37211524520874,3.6953659625,8.031705245208741,3.8013751625L8.030205245208741,3.8018418625L8.02967524520874,3.8020078625Q7.201705245208741,4.0598010625,6.86577524520874,4.1151430625Q6.48790524520874,4.1773600625,6.27799524520874,4.4003740625Q6.078520245208741,4.6123170625,6.04443124520874,4.9533740625Q5.982426245208741,5.5722140625000005,6.4523252452087405,6.507444062499999Q7.45079524520874,8.4945840625,9.41076524520874,9.8924640625Q10.297935245208741,10.525234062500001,10.62172524520874,11.601584062499999Q10.93332524520874,12.6377740625,10.54527524520874,13.4255240625Q10.34715524520874,13.8275140625,10.007395245208741,14.0496140625L6.04641024520874,13.0475440625L7.52032524520874,9.8301340625L5.21387274520874,12.7505440625L5.01460424520874,12.6384240625L4.97884324520874,12.8471440625L1.4674052452087403,12.6234540625L4.6646002452087405,13.6611840625L4.51329224520874,13.9508140625L4.4249452452087406,14.0108140625L4.46111024520874,14.0507140625L1.3201252452087404,20.0633140625L5.0351902452087405,14.6757140625Q6.96882524520874,16.6724140625,9.35938524520874,16.9526140625ZM6.23527524520874,14.4851140625Q7.7255052452087405,15.7881140625,9.47189524520874,15.9928140625L9.47193524520874,15.9928140625Q11.61861524520874,16.2446140625,13.46646524520874,14.8683140625Q15.289355245208741,13.5105540625,15.76045524520874,11.4052340625Q16.26865524520874,9.1340940625,14.85639524520874,7.069804062499999Q12.935315245208741,4.2618570625,10.65833524520874,4.2575780625Q9.897315245208741,4.2561550624999995,8.81399524520874,4.5729400625Q8.65137524520874,4.6204840625,8.31902524520874,4.7239850625L8.31747524520874,4.7244700625L8.31693524520874,4.7246360625Q7.42494524520874,5.0023640625,7.02276524520874,5.0686240625L7.00453524520874,5.0659740625000005Q6.9800552452087405,5.4054240625,7.31576524520874,6.0735940625Q8.20677524520874,7.8468540625,9.971885245208739,9.1057540625Q11.12809524520874,9.9304240625,11.547095245208741,11.3233040625Q11.96821524520874,12.7236640625,11.41203524520874,13.8527140625Q11.28246524520874,14.1156140625,11.11742524520874,14.3304140625L12.76216524520874,14.7466140625L10.94997524520874,14.5265140625Q10.28098524520874,15.2304140625,9.13364524520874,15.2859140625Q7.859605245208741,15.3474140625,6.23527524520874,14.4851140625ZM7.939465245208741,14.1610140625Q8.56302524520874,14.3460140625,9.08700524520874,14.3207140625Q9.14128524520874,14.3180140625,9.193865245208741,14.3133140625L7.939465245208741,14.1610140625Z" fill-rule="evenodd" fill="#000000" fill-opacity="1" style="mix-blend-mode:passthrough"/></g><g><path d="M6.380214214324951,4.751640792999268Q10.20290421432495,3.7337307929992676,11.039824214324952,3.7337307929992676C11.876824214324952,3.7337307929992676,15.22116421432495,5.357750792999267,16.19716421432495,8.325540792999266C17.58071421432495,12.532780792999267,13.817324214324952,15.291430792999268,13.392324214324951,15.020930792999268C17.44121421432495,11.673280792999268,10.813654214324952,5.4852107929992675,7.556434214324951,5.950460792999268Q7.149281214324951,6.008630792999268,7.375473214324951,6.357610792999267L7.284998214324951,7.262390792999268L6.606406214324951,6.1314207929992675L6.380214214324951,4.751640792999268Z" fill="#000000" fill-opacity="1" style="mix-blend-mode:passthrough"/></g><g><path d="M15.641246795654297,7.058924674987793C16.8484167956543,9.183944674987792,16.597580795654295,7.967308674987793,16.329580795654298,10.396524674987793C16.825496795654296,9.594364674987792,17.600916795654296,10.195024674987792,17.921166795654297,10.501774674987793C17.978586795654298,10.556774674987793,18.073246795654295,10.522694674987793,18.070576795654297,10.443194674987794C18.058416795654296,10.082864674987793,17.955166795654296,9.304274674987793,17.358666795654297,8.468944674987792Q16.540746795654297,7.323483674987793,15.641246795654297,7.058924674987793Z" fill="#000000" fill-opacity="1" style="mix-blend-mode:passthrough"/></g><g><path d="M18.028036795654298,10.548304674987794Q18.100346795654296,10.520844674987792,18.097706795654297,10.442284674987793L18.097706795654297,10.442274674987793Q18.084376795654297,10.047244674987793,17.959776795654296,9.626484674987793Q17.776396795654296,9.007224674987793,17.380756795654296,8.453164674987793Q16.557394795654297,7.300086674987793,15.648905825654296,7.032883974987793L15.584470195654298,7.013932274987793L15.617645395654296,7.072332774987793Q15.889069795654297,7.550130674987793,16.227361795654296,8.078714674987793Q16.377515795654297,8.313324674987793,16.423878795654296,8.398024674987793Q16.492139795654296,8.522734674987793,16.512025795654296,8.619174674987793Q16.531911795654295,8.715614674987792,16.518553795654295,8.857174674987792Q16.509480795654298,8.953324674987794,16.464395795654298,9.228244674987792Q16.362846795654296,9.847464674987792,16.302600795654296,10.393554674987794L16.289408795654296,10.513124674987793L16.352668795654296,10.410804674987792Q16.665476795654296,9.904824674987793,17.183486795654296,10.059324674987792Q17.526926795654298,10.161744674987792,17.902386795654298,10.521374674987793Q17.958176795654296,10.574824674987793,18.028036795654298,10.548304674987794ZM17.907716795654295,9.641904674987792Q18.030346795654296,10.056014674987793,18.043456795654297,10.444104674987793L18.043456795654297,10.444114674987793Q18.044786795654296,10.483874674987792,18.008766795654296,10.497544674987793Q17.9709667956543,10.511894674987794,17.939936795654297,10.482174674987792Q17.555006795654297,10.113464674987792,17.1990067956543,10.007294674987794Q16.741666795654297,9.870904674987793,16.434341795654298,10.210154674987793L16.472988795654295,10.114714674987793L16.422670795654298,10.094334674987794L16.3795597956543,10.200794674987794Q16.434910795654297,9.743494674987794,16.517966795654296,9.237024674987794Q16.563353795654297,8.960274674987794,16.572600795654296,8.862274674987793Q16.586722795654296,8.712614674987794,16.565193795654295,8.608214674987792Q16.543665795654295,8.503804674987792,16.4714987956543,8.371964674987794Q16.424244795654296,8.285634674987794,16.273085795654296,8.049447674987793Q15.956704795654296,7.555101674987793,15.699031995654297,7.105431274987793Q16.554005795654298,7.388758674987793,17.336576795654295,8.484714674987792Q17.726936795654296,9.031374674987793,17.907716795654295,9.641904674987792Z" fill-rule="evenodd" fill="#000000" fill-opacity="1" style="mix-blend-mode:passthrough"/></g><g><path d="M5.929147925720215,10.073777899243163C5.419817925720215,10.936111599243164,4.374812725720215,10.871444599243164,4.394821246720215,11.899863599243163Q5.328196925720215,13.973693599243164,5.333704925720215,13.824943599243165C7.062677925720215,12.853693599243165,6.352157925720215,10.709027599243164,6.095617925720215,10.078277599243163C6.066597925720215,10.006944299243164,5.968287925720215,10.007527699243164,5.929147925720215,10.073777899243163Z" fill="#000000" fill-opacity="1" style="mix-blend-mode:passthrough"/></g><g><path d="M2.0085525246276856,11.979611930114746C3.001618524627686,12.109194930114747,3.5940185246276855,11.245861930114746,4.3921585246276855,11.894861930114747Q5.451658524627685,13.907114930114746,5.331028524627685,13.819864930114747C3.5012285246276855,14.584284930114746,2.2486775246276856,12.704114930114747,1.9095775246276856,12.113528930114747C1.8712441246276856,12.046861930114746,1.9322275246276854,11.969694930114747,2.0085525246276856,11.979611930114746Z" fill="#000000" fill-opacity="1" style="mix-blend-mode:passthrough"/></g><g><path d="M10.340579033813476,10.701112039489747Q11.335909033813476,11.719107039489746,10.815579033813476,11.877367039489746C10.166829033813476,11.478027039489746,9.004408033813476,11.788367039489746,8.434574033813476,11.980527039489747C8.294290433813476,12.027857039489746,8.156749033813476,11.903357039489746,8.207315333813476,11.764197039489746C8.401074033813476,11.231027039489746,8.879491033813476,10.244111039489747,9.797739033813476,10.113027139489747Q10.340579033813476,9.977194039489746,10.340579033813476,10.701112039489747Z" fill="#000000" fill-opacity="1" style="mix-blend-mode:passthrough"/></g><g><path d="M10.950159297790528,5.723207457336426C10.837075697790528,5.564890457336426,10.610908297790527,5.135098457336426,11.312076297790528,5.135098457336426C12.013329297790527,5.135098457336426,13.084739297790527,5.929082457336426,13.302659297790527,6.222798457336426C13.234829297790528,6.401788457336426,12.782409297790528,6.441838457336425,12.556239297790528,6.424428457336425C12.329989297790528,6.407028457336426,11.945409297790528,6.3698084573364255,11.651409297790527,6.222798457336426C11.357326297790527,6.075782457336426,11.063325297790527,5.881565457336426,10.950159297790528,5.723207457336426Z" fill="#FFFFFF" fill-opacity="1" style="mix-blend-mode:passthrough"/></g></g></svg>