<svg xmlns="http://www.w3.org/2000/svg" xmlns:xlink="http://www.w3.org/1999/xlink" fill="none" version="1.1" width="20" height="20" viewBox="0 0 20 20"><g><g><ellipse cx="10" cy="10" rx="10" ry="10" fill="#FFFFFF" fill-opacity="1"/></g><g><path d="M12.5627,4.94566C12.559,4.94958,12.6615,5.00235,12.7905,5.06288C12.9196,5.12348,13.1294,5.23806,13.2566,5.31748C13.7592,5.63093,13.8449,5.81388,13.8456,6.57505C13.8459,6.95384,13.8414,7.0042,13.7968,7.11869C13.737,7.27201,13.7475,7.301,13.8135,7.16513C13.9356,6.91405,13.9861,6.6628,13.9934,6.27145C13.9981,6.02045,14.0052,5.96728,14.0389,5.93198C14.0754,5.89362,14.0842,5.89306,14.1435,5.92525C14.2318,5.97313,14.6319,6.30868,14.8058,6.48074L14.9481,6.62141L14.8058,6.42461C14.7276,6.31628,14.5118,6.06416,14.3262,5.86424C13.9308,5.4379,13.8995,5.38105,13.8445,4.98633C13.8012,4.67536,13.8116,4.40803,13.8744,4.21259C13.8975,4.14069,13.9124,4.08193,13.9074,4.08193C13.9025,4.08193,13.8705,4.1471,13.8363,4.22684C13.7498,4.4282,13.7068,4.6487,13.6888,4.98305C13.6772,5.19866,13.6656,5.27208,13.6418,5.28169C13.6061,5.29602,13.5577,5.28057,13.2643,5.16159C13.0671,5.08153,12.5769,4.93069,12.5627,4.94566ZM7.30691,4.39866C7.25959,4.98633,7.47808,5.77241,7.83124,6.28514C8.10503,6.68258,8.52943,6.99147,8.84279,7.02125C9.04786,7.04079,9.10952,6.97305,9.01672,6.83014C8.88788,6.63174,8.72936,6.32621,8.68741,6.19539C8.66134,6.11412,8.60482,5.87409,8.56164,5.662C8.41432,4.93781,8.269449999999999,4.65575,7.93508,4.44157C7.81314,4.36351,7.55285,4.26135,7.40193,4.23229L7.32156,4.21683L7.30691,4.39866ZM7.39395,3.82404C7.31205,3.83725,7.31941,3.84061,7.49334,3.86911C8.127030000000001,3.97272,8.62207,4.23765,9.125779999999999,4.7427C9.347570000000001,4.96496,9.57043,5.2411,9.93103,5.73998C10.74295,6.8632,11.08744,7.17618,11.77099,7.41116C12.1727,7.54936,12.5778,7.61381,13.2936,7.6536C14.0861,7.69763,14.3854,7.76481,14.6684,7.96233C14.8255,8.07186,14.9481,8.20773,15.0701,8.40725L15.141,8.52318L15.1262,8.39564C15.0693,7.90645,14.7379,7.21909,14.3161,6.71509L14.2392,6.62325L14.2004,6.80788C14.1026,7.27265,13.8917,7.60676,13.6958,7.607C13.6,7.60716,13.5033,7.54271,13.4686,7.4556C13.4252,7.34639,13.4288,7.30596,13.4934,7.17842C13.6122,6.94399,13.6415,6.63014,13.5829,6.22077C13.566,6.10235,13.5409,5.99146,13.5274,5.97425C13.4846,5.92021,13.1426,5.7098,12.9256,5.60411C12.137,5.21996,11.1942,5.09514,10.26739,5.25223L10.04737,5.28946L9.8936,5.10891C9.31474,4.42932,8.772459999999999,4.04662,8.1765,3.89722C7.9212,3.83325,7.55078,3.79858,7.39395,3.82404ZM7.7557,8.75465C7.71912,8.89708,7.73982,9.14688,7.79466,9.22406C7.88316,9.34865,7.96867,9.38147,8.20043,9.37979C8.65413,9.37643,9.04847,9.17122,9.09441,8.91478C9.13199,8.70445,8.95867,8.41309,8.72016,8.28515C8.597000000000001,8.21917,8.33517,8.193,8.20848,8.23399C8.00924,8.29852,7.8156,8.52118,7.7557,8.75465ZM11.0287,7.76577C11.0287,8.79204,11.61002,9.40028,13.2605,10.101C14.3595,10.5677,14.8091,10.809,15.1437,11.1122C15.4379,11.3789,15.6132,11.7349,15.6301,12.1005C15.6333,12.1688,15.6455,12.2189,15.6579,12.2146C15.7026,12.1993,15.8713,11.8013,15.9266,11.5804C15.9966,11.3007,16.021900000000002,10.7701,15.9788,10.4872C15.8301,9.51334,15.2069,8.79844,14.1995,8.44616C13.8826,8.33527,13.539,8.25945,12.9286,8.16545C11.89101,8.00588,11.51622,7.88499,11.18154,7.60196C11.10953,7.54103,11.04572,7.49115,11.03967,7.49115C11.03369,7.49115,11.0287,7.61469,11.0287,7.76577ZM9.02907,12.6519C8.82024,12.7579,8.56739,12.9168,8.582429999999999,12.9326C8.58726,12.9377,8.63496,12.9257,8.68833,12.9059C9.05967,12.7684,9.47288,12.6973,10.10067,12.6628C10.34984,12.6492,10.63321,12.6274,10.73045,12.6146C11.28975,12.5403,11.67743,12.3611,11.9789,12.0375C12.1466,11.8575,12.2466,11.6897,12.3272,11.4532C12.3783,11.3032,12.3852,11.2474,12.3856,10.9816C12.386,10.7108,12.3798,10.6612,12.3245,10.4946C12.252,10.2762,12.1665,10.1123,12.0582,9.98411L11.97997,9.89156L12.0221,10.0239C12.0452,10.0967,12.0811,10.2623,12.1018,10.3921C12.234,11.2218,11.82099,11.8921,11.01766,12.1518C10.93261,12.1792,10.59762,12.2484,10.27322,12.3053C9.616520000000001,12.4206,9.32348,12.5023,9.02907,12.6519ZM12.7088,10.3844C12.5887,10.832,12.6391,11.3119,12.8584,11.809C12.9684,12.0586,13.0782,12.247,13.5257,12.9547C13.9107,13.5636,14.1014,13.9238,14.1949,14.219C14.3476,14.701,14.3246,15.1342,14.1226,15.5795C14.0749,15.6848,14.0429,15.7707,14.0514,15.7705C14.06,15.7703,14.139,15.729,14.2269,15.6787C14.8274,15.3351,15.2484,14.7463,15.4296,13.9966C15.487,13.7589,15.5097,13.1908,15.471,12.9547C15.4029,12.5378,15.2613,12.1961,15.0326,11.896C14.7714,11.5532,14.3872,11.2533,13.7134,10.8659C13.1735,10.5555,12.9708,10.4347,12.8698,10.363C12.819,10.327,12.7673,10.2974,12.7549,10.2974C12.7424,10.2974,12.7217,10.3366,12.7088,10.3844ZM2.000149109,0C1.99501084,0,2.123314,0.169576,2.285285,0.376864C4.12432,2.7306,6.14351,5.68754,6.47014,6.16584C6.48754,6.19138,6.50004,6.2098,6.50764,6.22077C6.68173,6.47449,6.82544,6.66312,6.93457,6.80636C7.17692,7.12437,7.24878,7.21869,7.10421,7.3054C6.98764,7.3753,6.86724,7.39835,6.74722,7.39835C6.61148,7.39835,6.45848,7.3295,6.34712,7.21805C6.26836,7.13927,5.72969,6.3142,4.99607,5.11396C4.43477,4.19554,3.96504,3.43364,3.9523099999999998,3.42091C3.92263,3.39137,3.92317,3.39241,4.93886,5.30883C5.5766100000000005,6.5122,6.01291,7.40156,6.01291,7.4584C6.01291,7.57418,5.9830000000000005,7.63503,5.84756,7.79419C5.62186,8.05977,5.52101,8.35809,5.44816,8.97546C5.36656,9.66754,5.136950000000001,10.1565,4.500719999999999,10.9932C4.12831,11.483,4.06734,11.5728,3.9734,11.7702C3.85499,12.0188,3.82247,12.158,3.80928,12.472C3.7953200000000002,12.8039,3.82247,13.0183,3.91864,13.3356C4.0028500000000005,13.6134,4.09066,13.7969,4.31536,14.1639C4.50924,14.4805,4.62082,14.7158,4.62082,14.8078C4.62082,14.8811,4.6340900000000005,14.8812,4.934480000000001,14.8097C5.65346,14.6384,6.23723,14.3374,6.56554,13.9684C6.76877,13.7399,6.81647,13.6138,6.818,13.3009C6.81908,13.0961,6.81218,13.0533,6.75972,12.9355C6.67429,12.7438,6.51883,12.5844,6.1761,12.3374C5.726929999999999,12.0136,5.53512,11.753,5.48213,11.3945C5.43865,11.1005,5.48903,10.8929,5.73751,10.3438C5.994730000000001,9.77547,6.05846,9.53327,6.10156,8.96033C6.1294,8.59019,6.1679,8.44424,6.26875,8.3271C6.37397,8.20492,6.46868,8.16353,6.72889,8.12598C7.15329,8.06489,7.42348,7.94904,7.64565,7.73326C7.8383,7.54607,7.9189,7.36561,7.93132,7.09403L7.94068,6.88827L7.833,6.75584C7.44311,6.27641,2.024153,0,2.000149109,0ZM6.47688,14.6534L6.63717,14.6798C7.47333,14.8174,7.69857,14.9395,8.27858,15.5697C8.61233,15.9322,8.725069999999999,16.0129,9.001999999999999,16.0874C9.40861,16.1969,9.809470000000001,15.9958,9.94698,15.6132C10.00841,15.4423,10.00021,15.1592,9.92973,15.0171C9.762080000000001,14.6787,9.27364,14.5693,9.037510000000001,14.8172C8.840720000000001,15.0237,8.89808,15.3347,9.14273,15.3882C9.19871,15.4006,9.19718,15.3979,9.12846,15.3652C9.0214,15.3141,8.97485,15.2433,8.97431,15.1307C8.97293,14.8665,9.259599999999999,14.7182,9.52618,14.8451C9.72143,14.938,9.79897,15.0594,9.79897,15.2722C9.79897,15.5999,9.53446,15.8468,9.226700000000001,15.8065C9.06213,15.7849,8.860890000000001,15.6739,8.75306,15.5453C8.481580000000001,15.2216,8.58733,14.7108,8.966339999999999,14.5148C9.25493,14.3656,9.63853,14.4024,9.93594,14.6078C10.27767,14.8438,10.423,15.0595,10.71734,15.7674C10.8132,15.9979,10.93652,16.2574,10.99135,16.344C11.2702,16.7841,11.60426,17,12.0067,17C12.2286,17,12.3956,16.9572,12.6056,16.8467C12.7617,16.7645,12.9829,16.6082,12.967,16.5915C12.9625,16.5868,12.8977,16.608,12.8231,16.6387C12.3837,16.8194,11.9371,16.807,11.67774,16.6067C11.51438,16.4807,11.38263,16.2296,11.31491,15.9156C11.30318,15.8612,11.26452,15.6212,11.22894,15.3821C11.13875,14.7762,11.05217,14.5038,10.85024,14.1913C10.64364,13.8715,10.24646,13.6031,9.80242,13.4832C9.52541,13.4085,9.02708,13.3881,8.72783,13.4395C8.03378,13.5584,7.27163,13.9457,6.65918,14.491L6.47688,14.6534Z" fill="#FF007A" fill-opacity="1" style="mix-blend-mode:passthrough"/></g></g></svg>