<svg xmlns="http://www.w3.org/2000/svg" xmlns:xlink="http://www.w3.org/1999/xlink" fill="none" version="1.1" width="20" height="20" viewBox="0 0 20 20"><defs><radialGradient cx="0" cy="0" r="1" gradientUnits="userSpaceOnUse" id="master_svg0_159_4020" gradientTransform="translate(6.835171662751009 20.847461223602295) rotate(126.24495288275499) scale(20.866371438820842 45.12878948061797)"><stop offset="0%" stop-color="#FFFFFF" stop-opacity="1"/><stop offset="100%" stop-color="#FFFFFF" stop-opacity="0"/></radialGradient></defs><g><g></g><g><g><path d="M15.162486686534882,14.613676984558106L7.441745686534881,9.382396984558106L7.441745686534881,5.060939984558106C7.441745686534881,4.848614984558106,7.262922686534882,4.6666669845581055,7.054206686534881,4.6666669845581055C6.845566686534881,4.6666669845581055,6.666666686534882,4.848614984558106,6.666666686534882,5.060939984558106L6.666666686534882,14.916866984558105C6.666666686534882,15.129166984558106,6.845566686534881,15.311166984558106,7.054206686534881,15.311166984558106C7.262922686534882,15.311166984558106,7.441745686534881,15.129166984558106,7.441745686534881,14.916866984558105L7.441745686534881,10.322516984558106L14.730186686534882,15.265666984558106C14.90908668653488,15.386866984558106,15.147546686534882,15.341466984558105,15.26681668653488,15.159566984558106L15.26681668653488,15.144366984558106C15.386006686534882,14.977566984558106,15.341316686534881,14.734966984558106,15.162486686534882,14.613676984558106Z" fill="#FFFFFF" fill-opacity="1" style="mix-blend-mode:passthrough"/></g><g><path d="M10.047831255651092,8.378136984558106L10.139663655651093,8.521456984558105C10.231574655651093,8.664696984558105,10.430677655651092,8.712506984558106,10.568504655651093,8.616976984558105L15.193610655651092,5.400989984558105C15.331440655651093,5.305468984558106,15.377440655651093,5.098437984558106,15.285520655651093,4.955196984558105L15.193610655651092,4.8118739845581056C15.101780655651092,4.668633564558106,14.902680655651093,4.620831984558105,14.764850655651092,4.716353084558105L10.139663655651093,7.932346984558105C10.001835925651093,8.027866984558106,9.955919855651093,8.218986984558105,10.047831255651092,8.378136984558106Z" fill="#FFFFFF" fill-opacity="1" style="mix-blend-mode:passthrough"/></g><g><path d="M19.07416668653488,15.5033C18.993866686534883,15.5033,18.92346668653488,15.5423,18.873266686534883,15.6008C16.93416668653488,18.1759,13.829566686534882,19.6293,10.55421668653488,19.5025C5.480376686534882,19.3075,1.3509796865348815,15.2984,1.1600856865348816,10.3725C1.0596146865348817,7.75827,2.0241466865348814,5.29043,3.8929166865348814,3.40785C5.761696686534882,1.52526,8.263436686534881,0.481543,10.956066686534882,0.481543C14.070766686534881,0.481543,17.024666686534882,1.94469,18.873266686534883,4.39303C18.92346668653488,4.45156,18.993866686534883,4.49058,19.07416668653488,4.49058C19.164666686534883,4.49058,19.25506668653488,4.44181,19.29526668653488,4.36377C19.335466686534883,4.28574,19.32546668653488,4.18819,19.27516668653488,4.11016C17.265666686534882,1.44722,14.050666686534882,-0.0842097,10.664736686534882,0.00357951C8.012276686534882,0.0718599,5.510516686534881,1.13508,3.6316966865348816,2.98841C1.7629166865348815,4.84173,0.7079627865348816,7.27054,0.6677740365348815,9.85547C0.6275853865348816,12.5477,1.6825366865348816,15.0936,3.6316966865348816,17.0152C5.580846686534882,18.9368,8.193116686534882,20,10.966066686534882,20C14.231466686534882,20,17.346066686534883,18.4686,19.285266686534882,15.8935C19.34556668653488,15.8154,19.34556668653488,15.7178,19.30536668653488,15.6398C19.25506668653488,15.552,19.17466668653488,15.5033,19.07416668653488,15.5033Z" fill="url(#master_svg0_159_4020)" fill-opacity="1" style="mix-blend-mode:passthrough"/></g></g></g></svg>